<svg xmlns="http://www.w3.org/2000/svg"  version="1.1" x="0px" y="0px" viewBox="0 0 100 125" ><g transform="translate(0,-952.36218)"><path d="m 42,967.36216 -0.9375,8.46875 c -1.20471,0.40625 -2.37494,0.87806 -3.5,1.4375 l -6.65625,-5.3125 -11.3125,11.3125 5.3125,6.65625 c -0.55944,1.12507 -1.03125,2.29528 -1.4375,3.5 L 15,994.36216 l 0,16.00004 8.46875,0.9375 c 0.40625,1.2047 0.87806,2.3749 1.4375,3.5 l -5.3125,6.6562 11.3125,11.3125 6.65625,-5.3125 c 1.12506,0.5595 2.29529,1.0313 3.5,1.4375 l 0.9375,8.4688 16,0 0.9375,-8.4688 c 1.20471,-0.4062 2.37494,-0.878 3.5,-1.4375 l 6.65625,5.3125 11.3125,-11.3125 -5.3125,-6.6562 c 0.55944,-1.1251 1.03125,-2.2953 1.4375,-3.5 L 85,1010.3622 l 0,-16.00004 -8.46875,-0.9375 c -0.40625,-1.20472 -0.87806,-2.37493 -1.4375,-3.5 l 5.3125,-6.65625 -11.3125,-11.3125 -6.65625,5.3125 c -1.12506,-0.55944 -2.29529,-1.03125 -3.5,-1.4375 L 58,967.36216 l -16,0 z m 8,19 c 8.83656,0 16,7.16338 16,16.00004 0,8.8365 -7.16344,16 -16,16 -8.83656,0 -16,-7.1635 -16,-16 0,-8.83666 7.16344,-16.00004 16,-16.00004 z" fill="#fff" /></g></svg>
