<svg xmlns="http://www.w3.org/2000/svg" width="150" viewBox="0 0 500 300"><path fill="#3c54a5" d="M563.695 224.5h455.949v294.173H563.695z"/><path d="M55.602 138.162h13.876v87.684c0 11.309-2.519 20.296-7.556 26.964-5.039 6.666-11.496 10-19.372 10-8.473 0-15.193-3.023-20.161-9.071-4.969-6.048-7.362-14.924-7.178-26.626l.206-.507h13.395c0 7.764 1.225 13.574 3.675 17.426 2.45 3.855 5.805 5.781 10.063 5.781 3.754 0 6.87-2.165 9.342-6.499 2.473-4.33 3.709-10.154 3.709-17.468v-87.684z" fill="#fff"/><g fill="#fff"><path d="M36.897 143.698H23.022V20.822h13.875v122.876zM68.222 52.385l.755 13.503c2.061-4.781 4.671-8.509 7.831-11.183 3.16-2.672 6.732-4.008 10.716-4.008 6.502 0 11.563 2.953 15.181 8.861 3.617 5.907 5.427 15.078 5.427 27.511v56.628H94.187V87.24c0-8.495-.985-14.487-2.954-17.976-1.97-3.489-4.946-5.233-8.93-5.233-2.84 0-5.358 1.085-7.556 3.25-2.198 2.166-3.984 5.105-5.358 8.819v67.598H55.445V52.385h12.777zM141.722 29.684v22.701h11.609v12.237h-11.609v54.349c0 4.726.572 8.089 1.717 10.085 1.144 1.998 2.633 2.996 4.465 2.996 1.099 0 2.118-.084 3.057-.253a44.369 44.369 0 0 0 3.332-.759l1.443 11.814c-1.558.789-3.309 1.421-5.255 1.9-1.947.476-3.95.717-6.011.717-5.267 0-9.354-2.124-12.262-6.372-2.909-4.247-4.362-10.957-4.362-20.128V64.622h-9.686V52.385h9.686V29.684h13.876z"/></g><path d="M186.056 145.471c-8.839 0-15.914-3.769-21.226-11.309-5.313-7.539-7.968-17.188-7.968-28.947V91.881c0-11.927 2.599-21.773 7.796-29.538 5.197-7.764 11.803-11.646 19.818-11.646 8.426 0 14.906 3.531 19.44 10.591 4.534 7.062 6.801 16.556 6.801 28.482v11.815h-39.979v3.629c0 7.877 1.408 14.389 4.225 19.537 2.816 5.148 6.811 7.721 11.987 7.721 3.847 0 7.144-.745 9.892-2.236 2.748-1.49 5.358-3.67 7.831-6.541l4.396 10.634c-2.335 3.264-5.473 5.937-9.411 8.017-3.94 2.083-8.474 3.125-13.602 3.125zm-1.58-81.777c-4.03 0-7.259 2.421-9.686 7.263-2.428 4.842-3.778 10.974-4.053 18.392h26.171v-3.482c0-6.513-1.054-11.836-3.16-15.972-2.106-4.134-5.197-6.201-9.272-6.201zM256.103 67.31l-6.525-.422c-2.885 0-5.278 1.069-7.179 3.207-1.9 2.14-3.354 5.148-4.361 9.03v65.066h-13.944V52.877h12.708l1.03 13.756c1.556-4.837 3.595-8.62 6.113-11.35 2.519-2.729 5.427-4.093 8.724-4.093.916 0 1.855.098 2.816.295.962.197 1.718.437 2.268.717l-1.65 15.108z" fill="#fff"/><g fill="#fff"><path d="M282.311 52.385l.756 13.503c2.061-4.781 4.671-8.509 7.831-11.183 3.16-2.672 6.731-4.008 10.716-4.008 6.502 0 11.563 2.953 15.181 8.861 3.617 5.907 5.427 15.078 5.427 27.511v56.628h-13.944V87.24c0-8.495-.985-14.487-2.954-17.976-1.969-3.489-4.945-5.233-8.93-5.233-2.84 0-5.357 1.085-7.556 3.25-2.198 2.166-3.984 5.105-5.358 8.819v67.598h-13.944V52.385h12.775zM364.879 145.471c-8.839 0-15.914-3.769-21.226-11.309-5.313-7.539-7.969-17.188-7.969-28.947V91.881c0-11.927 2.599-21.773 7.797-29.538 5.196-7.764 11.803-11.646 19.817-11.646 8.426 0 14.906 3.531 19.44 10.591 4.533 7.062 6.8 16.556 6.8 28.482v11.815h-39.979v3.629c0 7.877 1.408 14.389 4.225 19.537 2.816 5.148 6.812 7.721 11.986 7.721 3.847 0 7.145-.745 9.892-2.236 2.748-1.49 5.358-3.67 7.831-6.541l4.396 10.634c-2.336 3.264-5.473 5.937-9.411 8.017-3.937 2.083-8.471 3.125-13.599 3.125zm-1.58-81.777c-4.03 0-7.259 2.421-9.686 7.263-2.428 4.842-3.778 10.974-4.053 18.392h26.172v-3.482c0-6.513-1.055-11.836-3.16-15.972-2.106-4.134-5.198-6.201-9.273-6.201zM419.695 29.684v22.701h11.608v12.237h-11.608v54.349c0 4.726.572 8.089 1.717 10.085 1.145 1.998 2.633 2.996 4.466 2.996a17.29 17.29 0 0 0 3.057-.253 44.245 44.245 0 0 0 3.331-.759l1.442 11.814c-1.557.789-3.309 1.421-5.255 1.9a25.204 25.204 0 0 1-6.011.717c-5.267 0-9.354-2.124-12.261-6.372-2.909-4.247-4.362-10.957-4.362-20.128V64.622h-9.686V52.385h9.686V29.684h13.876z"/></g><g fill="#fff"><path d="M125.599 248.801c-1.969 4.501-4.488 7.962-7.556 10.379-3.068 2.42-6.594 3.63-10.579 3.63-6.731 0-11.976-3.179-15.73-9.536-3.755-6.356-5.633-16.231-5.633-29.622v-53.927h13.876v54.096c0 9.339.904 15.964 2.713 19.875 1.809 3.911 4.522 5.865 8.14 5.865 3.435 0 6.308-.983 8.621-2.954 2.312-1.968 4.156-4.781 5.53-8.438v-68.443h13.945v91.312h-12.434l-.893-12.237zM167.364 169.725l.755 13.502c2.061-4.78 4.671-8.508 7.831-11.181 3.16-2.671 6.732-4.009 10.716-4.009 6.502 0 11.563 2.952 15.181 8.86 3.617 5.908 5.427 15.08 5.427 27.513v56.626H193.33v-56.457c0-8.494-.985-14.488-2.954-17.976-1.97-3.488-4.946-5.233-8.93-5.233-2.84 0-5.358 1.085-7.556 3.249-2.198 2.168-3.984 5.106-5.358 8.819v67.598h-13.944v-91.312h12.776z"/></g><path d="M243.735 219.096h-5.907v41.94h-13.876V129.385h13.876v76.713h5.701l16.418-36.373h16.279l-21.569 41.184 24.661 50.128h-16.212l-19.371-41.941zM289 187h17v75h-17zM289 157h17v18h-17zM346.506 262.81c-8.839 0-15.914-3.768-21.226-11.309-5.313-7.539-7.969-17.187-7.969-28.947v-13.333c0-11.927 2.599-21.773 7.797-29.538 5.196-7.764 11.803-11.646 19.817-11.646 8.426 0 14.906 3.531 19.44 10.591 4.533 7.062 6.8 16.556 6.8 28.481v11.816h-39.979v3.628c0 7.878 1.408 14.391 4.225 19.537 2.816 5.147 6.812 7.722 11.986 7.722 3.847 0 7.145-.744 9.892-2.235 2.748-1.489 5.358-3.671 7.831-6.541l4.396 10.633c-2.336 3.264-5.473 5.938-9.411 8.019s-8.471 3.122-13.599 3.122zm-1.58-81.777c-4.03 0-7.259 2.422-9.686 7.264-2.428 4.841-3.778 10.974-4.053 18.392h26.172v-3.482c0-6.514-1.055-11.837-3.16-15.972-2.106-4.134-5.198-6.202-9.273-6.202z" fill="#fff"/></svg>