<svg xmlns="http://www.w3.org/2000/svg" fill="#fff" data-name="Layer 1" viewBox="-100 -50 752 780" x="0px" y="0px"><title>d3</title><path class="bin" d="M431.31,160H80.6c-0.14,3-.39,6-0.39,8.75,0,28.32,0,56.74,0,85.06,0,61.81-.13,123.66.06,185.47a72,72,0,0,0,54.17,70.11c3.83,1,7.73,1.76,11.6,2.61H366a20.62,20.62,0,0,1,3.27-1,72,72,0,0,0,62.5-71.17q0.22-135.94,0-272.07C431.81,165.3,431.49,163,431.31,160ZM176.15,308.66q0,59.45,0,118.9a30.83,30.83,0,0,1-.54,6.93c-2.06,8.81-9.23,14.39-17.16,13.59s-14.32-8.19-14.53-17.1c-0.19-8-.07-16-0.07-24q0-35.47,0-70.94,0-47,0-93.92c0-11,7.8-19,17.39-18.28,8.38,0.63,14.8,8.34,14.85,18.35C176.21,264.37,176.15,286.52,176.15,308.66Zm96,27.89q0,46,0,91.92a28.14,28.14,0,0,1-.33,5.47c-1.78,8.89-9.19,14.91-17.25,14.16-7.88-.74-14.5-8.09-14.65-17-0.23-13.82-.08-27.64-0.08-41.46q0-72.43,0-144.87a35.57,35.57,0,0,1,.3-6.47c1.67-8.94,8.92-15,17.05-14.42S272,232,272.1,241.14c0.16,16.65.07,33.3,0.07,50Q272.18,313.82,272.17,336.55Zm96-.55h0c0,31,0,61.59,0,92.4a27.82,27.82,0,0,1-.41,5.94c-2,9-9.39,14.7-17.51,13.74s-14.3-8.5-14.33-17.82c-0.09-25.65,0-51.29,0-76.94q0-54,0-107.91a53,53,0,0,1,.15-6c1-9.1,8.22-15.79,16.56-15.53,8,0.24,14.92,7.33,15.5,16.14,0.3,4.64.11,9.35,0.11,14C368.17,281.35,368.17,309,368.17,336Z"/><path d="M463.84,94.63c0.08-19.35-10.91-30.46-30.23-30.47q-43.41,0-86.81,0a25.54,25.54,0,0,0,1.2-7.71V25.56A25.58,25.58,0,0,0,322.42,0H189.58A25.58,25.58,0,0,0,164,25.56V56.44a25.54,25.54,0,0,0,1.2,7.72q-44.38,0-88.75,0c-14.46,0-25.52,9-27.91,22.89-0.59,3.41-.37,7-0.37,10.46,0,19.38,10.92,30.31,30.31,30.31l208.95,0q74.23,0,148.46,0c14.56,0,25.56-9.46,27.66-23.72A67.6,67.6,0,0,0,463.84,94.63Z"/></svg>