<?xml version="1.0" encoding="iso-8859-1"?>
<!-- Generator: Adobe Illustrator 16.0.0, SVG Export Plug-In . SVG Version: 6.00 Build 0)  -->
<!DOCTYPE svg PUBLIC "-//W3C//DTD SVG 1.1//EN" "http://www.w3.org/Graphics/SVG/1.1/DTD/svg11.dtd">
<svg version="1.1" id="Layer_1" xmlns="http://www.w3.org/2000/svg" xmlns:xlink="http://www.w3.org/1999/xlink" x="0px" y="0px"
	 width="440px" height="280px" viewBox="0 0 440 280" style="enable-background:new 0 0 440 280;" xml:space="preserve">
<rect x="563.695" y="224.5" style="fill:#3C54A5;" width="455.949" height="294.173"/>
<g>
	<path style="fill:#FFFFFF;" d="M55.602,138.162h13.876v87.684c0,11.309-2.519,20.296-7.556,26.964
		c-5.039,6.666-11.496,10-19.372,10c-8.473,0-15.193-3.023-20.161-9.071c-4.969-6.048-7.362-14.924-7.178-26.626l0.206-0.507h13.395
		c0,7.764,1.225,13.574,3.675,17.426c2.45,3.855,5.805,5.781,10.063,5.781c3.754,0,6.87-2.165,9.342-6.499
		c2.473-4.33,3.709-10.154,3.709-17.468V138.162z"/>
</g>
<g>
	<path style="fill:#FFFFFF;" d="M36.897,143.698H23.022V20.822h13.875V143.698z"/>
	<path style="fill:#FFFFFF;" d="M68.222,52.385l0.755,13.503c2.061-4.781,4.671-8.509,7.831-11.183
		c3.16-2.672,6.732-4.008,10.716-4.008c6.502,0,11.563,2.953,15.181,8.861c3.617,5.907,5.427,15.078,5.427,27.511v56.628H94.187
		V87.24c0-8.495-0.985-14.487-2.954-17.976c-1.97-3.489-4.946-5.233-8.93-5.233c-2.84,0-5.358,1.085-7.556,3.25
		c-2.198,2.166-3.984,5.105-5.358,8.819v67.598H55.445V52.385H68.222z"/>
	<path style="fill:#FFFFFF;" d="M141.722,29.684v22.701h11.609v12.237h-11.609v54.349c0,4.726,0.572,8.089,1.717,10.085
		c1.144,1.998,2.633,2.996,4.465,2.996c1.099,0,2.118-0.084,3.057-0.253c0.938-0.169,2.049-0.422,3.332-0.759l1.443,11.814
		c-1.558,0.789-3.309,1.421-5.255,1.9c-1.947,0.476-3.95,0.717-6.011,0.717c-5.267,0-9.354-2.124-12.262-6.372
		c-2.909-4.247-4.362-10.957-4.362-20.128V64.622h-9.686V52.385h9.686V29.684H141.722z"/>
</g>
<g>
	<path style="fill:#FFFFFF;" d="M186.056,145.471c-8.839,0-15.914-3.769-21.226-11.309c-5.313-7.539-7.968-17.188-7.968-28.947
		V91.881c0-11.927,2.599-21.773,7.796-29.538c5.197-7.764,11.803-11.646,19.818-11.646c8.426,0,14.906,3.531,19.44,10.591
		c4.534,7.062,6.801,16.556,6.801,28.482v11.815h-39.979v3.629c0,7.877,1.408,14.389,4.225,19.537
		c2.816,5.148,6.811,7.721,11.987,7.721c3.847,0,7.144-0.745,9.892-2.236c2.748-1.49,5.358-3.67,7.831-6.541l4.396,10.634
		c-2.335,3.264-5.473,5.937-9.411,8.017C195.718,144.429,191.184,145.471,186.056,145.471z M184.476,63.694
		c-4.03,0-7.259,2.421-9.686,7.263c-2.428,4.842-3.778,10.974-4.053,18.392h26.171v-3.482c0-6.513-1.054-11.836-3.16-15.972
		C191.642,65.761,188.551,63.694,184.476,63.694z"/>
</g>
<g>
	<path style="fill:#FFFFFF;" d="M256.103,67.31l-6.525-0.422c-2.885,0-5.278,1.069-7.179,3.207c-1.9,2.14-3.354,5.148-4.361,9.03
		v65.066h-13.944V52.877h12.708l1.03,13.756c1.556-4.837,3.595-8.62,6.113-11.35c2.519-2.729,5.427-4.093,8.724-4.093
		c0.916,0,1.855,0.098,2.816,0.295c0.962,0.197,1.718,0.437,2.268,0.717L256.103,67.31z"/>
</g>
<g>
	<path style="fill:#FFFFFF;" d="M282.311,52.385l0.756,13.503c2.061-4.781,4.671-8.509,7.831-11.183
		c3.16-2.672,6.731-4.008,10.716-4.008c6.502,0,11.563,2.953,15.181,8.861c3.617,5.907,5.427,15.078,5.427,27.511v56.628h-13.944
		V87.24c0-8.495-0.985-14.487-2.954-17.976c-1.969-3.489-4.945-5.233-8.93-5.233c-2.84,0-5.357,1.085-7.556,3.25
		c-2.198,2.166-3.984,5.105-5.358,8.819v67.598h-13.944V52.385H282.311z"/>
	<path style="fill:#FFFFFF;" d="M364.879,145.471c-8.839,0-15.914-3.769-21.226-11.309c-5.313-7.539-7.969-17.188-7.969-28.947
		V91.881c0-11.927,2.599-21.773,7.797-29.538c5.196-7.764,11.803-11.646,19.817-11.646c8.426,0,14.906,3.531,19.44,10.591
		c4.533,7.062,6.8,16.556,6.8,28.482v11.815h-39.979v3.629c0,7.877,1.408,14.389,4.225,19.537c2.816,5.148,6.812,7.721,11.986,7.721
		c3.847,0,7.145-0.745,9.892-2.236c2.748-1.49,5.358-3.67,7.831-6.541l4.396,10.634c-2.336,3.264-5.473,5.937-9.411,8.017
		C374.541,144.429,370.007,145.471,364.879,145.471z M363.299,63.694c-4.03,0-7.259,2.421-9.686,7.263
		c-2.428,4.842-3.778,10.974-4.053,18.392h26.172v-3.482c0-6.513-1.055-11.836-3.16-15.972
		C370.466,65.761,367.374,63.694,363.299,63.694z"/>
	<path style="fill:#FFFFFF;" d="M419.695,29.684v22.701h11.608v12.237h-11.608v54.349c0,4.726,0.572,8.089,1.717,10.085
		c1.145,1.998,2.633,2.996,4.466,2.996c1.099,0,2.117-0.084,3.057-0.253c0.938-0.169,2.049-0.422,3.331-0.759l1.442,11.814
		c-1.557,0.789-3.309,1.421-5.255,1.9c-1.946,0.476-3.949,0.717-6.011,0.717c-5.267,0-9.354-2.124-12.261-6.372
		c-2.909-4.247-4.362-10.957-4.362-20.128V64.622h-9.686V52.385h9.686V29.684H419.695z"/>
</g>
<g>
	<path style="fill:#FFFFFF;" d="M125.599,248.801c-1.969,4.501-4.488,7.962-7.556,10.379c-3.068,2.42-6.594,3.63-10.579,3.63
		c-6.731,0-11.976-3.179-15.73-9.536c-3.755-6.356-5.633-16.231-5.633-29.622v-53.927h13.876v54.096
		c0,9.339,0.904,15.964,2.713,19.875c1.809,3.911,4.522,5.865,8.14,5.865c3.435,0,6.308-0.983,8.621-2.954
		c2.312-1.968,4.156-4.781,5.53-8.438v-68.443h13.945v91.312h-12.434L125.599,248.801z"/>
	<path style="fill:#FFFFFF;" d="M167.364,169.725l0.755,13.502c2.061-4.78,4.671-8.508,7.831-11.181
		c3.16-2.671,6.732-4.009,10.716-4.009c6.502,0,11.563,2.952,15.181,8.86c3.617,5.908,5.427,15.08,5.427,27.513v56.626H193.33
		v-56.457c0-8.494-0.985-14.488-2.954-17.976c-1.97-3.488-4.946-5.233-8.93-5.233c-2.84,0-5.358,1.085-7.556,3.249
		c-2.198,2.168-3.984,5.106-5.358,8.819v67.598h-13.944v-91.312H167.364z"/>
</g>
<g>
	<path style="fill:#FFFFFF;" d="M243.735,219.096h-5.907v41.94h-13.876V129.385h13.876v76.713h5.701l16.418-36.373h16.279
		l-21.569,41.184l24.661,50.128h-16.212L243.735,219.096z"/>
</g>
<rect x="289" y="187" style="fill:#FFFFFF;" width="17" height="75"/>
<rect x="289" y="157" style="fill:#FFFFFF;" width="17" height="18"/>
<g>
	<path style="fill:#FFFFFF;" d="M346.506,262.81c-8.839,0-15.914-3.768-21.226-11.309c-5.313-7.539-7.969-17.187-7.969-28.947
		v-13.333c0-11.927,2.599-21.773,7.797-29.538c5.196-7.764,11.803-11.646,19.817-11.646c8.426,0,14.906,3.531,19.44,10.591
		c4.533,7.062,6.8,16.556,6.8,28.481v11.816h-39.979v3.628c0,7.878,1.408,14.391,4.225,19.537c2.816,5.147,6.812,7.722,11.986,7.722
		c3.847,0,7.145-0.744,9.892-2.235c2.748-1.489,5.358-3.671,7.831-6.541l4.396,10.633c-2.336,3.264-5.473,5.938-9.411,8.019
		S351.634,262.81,346.506,262.81z M344.926,181.033c-4.03,0-7.259,2.422-9.686,7.264c-2.428,4.841-3.778,10.974-4.053,18.392h26.172
		v-3.482c0-6.514-1.055-11.837-3.16-15.972C352.093,183.101,349.001,181.033,344.926,181.033z"/>
</g>
</svg>
