<svg xmlns="http://www.w3.org/2000/svg" viewBox="0 0 24 30"  x="0px" y="0px"><g><path d="M13 22h-4.498c-1.379 0-2.502-1.122-2.502-2.502v-1.498c0-.553.448-1 1-1s1 .447 1 1v1.498c0 .276.225.502.502.502h4.498c.553 0 1 .447 1 1s-.447 1-1 1zM10 12h-9c-.552 0-1-.448-1-1s.448-1 1-1h9c.552 0 1 .448 1 1s-.448 1-1 1zM7 15c-.256 0-.512-.098-.707-.293-.391-.391-.391-1.023 0-1.414l3-3c.391-.391 1.023-.391 1.414 0s.391 1.023 0 1.414l-3 3c-.195.195-.451.293-.707.293zM10 12c-.256 0-.512-.098-.707-.293l-3-3c-.391-.391-.391-1.023 0-1.414s1.023-.391 1.414 0l3 3c.391.391.391 1.023 0 1.414-.195.195-.451.293-.707.293zM7 5c-.552 0-1-.448-1-1v-1.493c0-1.382 1.125-2.507 2.507-2.507h13.396c1.157 0 2.097.94 2.097 2.096 0 .552-.447 1-1 1s-1-.448-1-1c0-.053-.043-.096-.097-.096h-13.396c-.279 0-.507.228-.507.507v1.493c0 .552-.448 1-1 1zM13.996 24c-.453 0-.894-.154-1.254-.445-.471-.381-.742-.948-.742-1.554v-16.991c0-.912.616-1.708 1.499-1.936l8.315-2.146c.535-.135 1.08.184 1.219.718l.001.007c.536.019.966.46.966 1.001v17.631c0 .937-.665 1.759-1.581 1.954l-8.001 1.716c-.141.03-.282.045-.422.045zm8.004-21.053l-8.001 2.064.001 16.99 8-1.717v-17.337z" fill="#fff"/></g></svg>